# xmcd
#
# Track frame offsets: 
#        150
#        39309
#        96039
#        135351
#        182210
#        220425
#        253910
#        301128
#
# Disc length: 4613 seconds
#
# Revision: 0
# Processed by: cddbd v1.5.2PL0 Copyright (c) Steve Scherf et al.
# Submitted via: ExactAudioCopy v0.99pb5
#
DISCID=6a120308
DTITLE=Sonny Rhodes - Live
DYEAR=2009
DGENRE=Blues
TTITLE0=She's My Woman
TTITLE1=Crazy Fool Blues
TTITLE2=Shaky Ground
TTITLE3=Since I Met You Baby
TTITLE4=River's Invitation
TTITLE5=Think
TTITLE6=Jelly, Jelly, Jelly
TTITLE7=Life's Rainbow
EXTD=
EXTT0=
EXTT1=
EXTT2=
EXTT3=
EXTT4=
EXTT5=
EXTT6=
EXTT7=
PLAYORDER=
